<?xml version="1.0" encoding="UTF-8"?>
<svg width="800" height="600" viewBox="0 0 800 600" fill="none" xmlns="http://www.w3.org/2000/svg">
  <!-- Background -->
  <rect width="800" height="600" fill="#1F2937"/>
  
  <!-- Decorative background elements -->
  <circle cx="700" cy="100" r="150" fill="#374151" opacity="0.1"/>
  <circle cx="100" cy="500" r="100" fill="#60A5FA" opacity="0.05"/>
  
  <!-- Grid lines -->
  <g stroke="#374151" stroke-width="1">
    <line x1="50" y1="550" x2="750" y2="550"/>
    <line x1="50" y1="400" x2="750" y2="400"/>
    <line x1="50" y1="250" x2="750" y2="250"/>
    <line x1="50" y1="100" x2="750" y2="100"/>
  </g>
  
  <!-- Multiple compound interest curves with different rates -->
  <!-- High growth curve -->
  <path d="M50 550 C150 450, 250 350, 350 250 C450 150, 550 100, 650 50" 
        stroke="#60A5FA" 
        stroke-width="3" 
        fill="none"/>
  
  <!-- Medium growth curve -->
  <path d="M50 550 C150 500, 250 400, 350 300 C450 200, 550 150, 650 100" 
        stroke="#34D399" 
        stroke-width="3" 
        fill="none"/>
  
  <!-- Low growth curve -->
  <path d="M50 550 C150 550, 250 500, 350 400 C450 300, 550 250, 650 200" 
        stroke="#F59E0B" 
        stroke-width="3" 
        fill="none"/>
  
  <!-- Points on the curves -->
  <g fill="#60A5FA">
    <circle cx="50" cy="550" r="4"/>
    <circle cx="200" cy="400" r="4"/>
    <circle cx="400" cy="200" r="4"/>
    <circle cx="600" cy="75" r="4"/>
  </g>
  
  <g fill="#34D399">
    <circle cx="50" cy="550" r="4"/>
    <circle cx="200" cy="450" r="4"/>
    <circle cx="400" cy="300" r="4"/>
    <circle cx="600" cy="150" r="4"/>
  </g>
  
  <g fill="#F59E0B">
    <circle cx="50" cy="550" r="4"/>
    <circle cx="200" cy="525" r="4"/>
    <circle cx="400" cy="400" r="4"/>
    <circle cx="600" cy="300" r="4"/>
  </g>
  
  <!-- Decorative elements -->
  <g opacity="0.1">
    <path d="M100 100 L200 200 L300 100" stroke="#60A5FA" stroke-width="2" fill="none"/>
    <path d="M600 400 L700 500 L750 400" stroke="#34D399" stroke-width="2" fill="none"/>
  </g>
</svg> 